<svg xmlns="http://www.w3.org/2000/svg" viewBox="0 11.300000190734863 156.5500030517578 37.35000228881836" data-asc="0.968"><defs/><g><g><g transform="translate(0, 0)"><path d="M3.30 30.35L21.80 30.35L21.80 33.55L3.30 33.55L3.30 30.35M3.70 48.40L0 48.40L0 13.40L24.00 13.40L24.00 16.60L3.70 16.60L3.70 48.40ZM42.05 48.65Q37.95 48.65 34.85 46.92Q31.75 45.20 30.00 42.17Q28.25 39.15 28.25 35.25Q28.25 31.35 29.93 28.35Q31.60 25.35 34.53 23.62Q37.45 21.90 41.10 21.90Q44.80 21.90 47.68 23.57Q50.55 25.25 52.20 28.27Q53.85 31.30 53.85 35.25Q53.85 35.50 53.83 35.77Q53.80 36.05 53.80 36.35L30.95 36.35L30.95 33.70L51.90 33.70L50.50 34.75Q50.50 31.90 49.28 29.67Q48.05 27.45 45.95 26.20Q43.85 24.95 41.10 24.95Q38.40 24.95 36.25 26.20Q34.10 27.45 32.90 29.70Q31.70 31.95 31.70 34.85L31.70 35.40Q31.70 38.40 33.03 40.67Q34.35 42.95 36.73 44.23Q39.10 45.50 42.15 45.50Q44.55 45.50 46.63 44.65Q48.70 43.80 50.20 42.05L52.20 44.35Q50.45 46.45 47.83 47.55Q45.20 48.65 42.05 48.65ZM69.40 48.65Q65.70 48.65 63.70 46.65Q61.70 44.65 61.70 41L61.70 16.35L65.25 16.35L65.25 40.80Q65.25 43.10 66.43 44.35Q67.60 45.60 69.80 45.60Q72.15 45.60 73.70 44.25L74.95 46.80Q73.90 47.75 72.43 48.20Q70.95 48.65 69.40 48.65M57.00 25.10L57.00 22.15L73.25 22.15L73.25 25.10L57.00 25.10ZM92.30 48.65Q88.40 48.65 85.33 46.92Q82.25 45.20 80.50 42.17Q78.75 39.15 78.75 35.25Q78.75 31.30 80.50 28.30Q82.25 25.30 85.33 23.60Q88.40 21.90 92.30 21.90Q95.65 21.90 98.35 23.20Q101.05 24.50 102.60 27.10L99.95 28.90Q98.60 26.90 96.60 25.95Q94.60 25.00 92.25 25.00Q89.45 25.00 87.20 26.27Q84.95 27.55 83.65 29.85Q82.35 32.15 82.35 35.25Q82.35 38.35 83.65 40.65Q84.95 42.95 87.20 44.23Q89.45 45.50 92.25 45.50Q94.60 45.50 96.60 44.55Q98.60 43.60 99.95 41.65L102.60 43.45Q101.05 46 98.35 47.32Q95.65 48.65 92.30 48.65ZM122.95 21.90Q126.15 21.90 128.58 23.12Q131 24.35 132.38 26.85Q133.75 29.35 133.75 33.15L133.75 48.40L130.20 48.40L130.20 33.50Q130.20 29.35 128.13 27.22Q126.05 25.10 122.30 25.10Q119.50 25.10 117.43 26.22Q115.35 27.35 114.23 29.47Q113.10 31.60 113.10 34.60L113.10 48.40L109.55 48.40L109.55 11.30L113.10 11.30L113.10 29.35L112.40 28.00Q113.65 25.15 116.40 23.52Q119.15 21.90 122.95 21.90ZM143.35 48.40L143.35 22.15L146.75 22.15L146.75 29.30L146.40 28.05Q147.50 25.05 150.10 23.47Q152.70 21.90 156.55 21.90L156.55 25.35Q156.35 25.35 156.15 25.32Q155.95 25.30 155.75 25.30Q151.60 25.30 149.25 27.82Q146.90 30.35 146.90 35L146.90 48.40L143.35 48.40Z"/></g></g></g></svg>