<svg width="119" height="36" viewBox="0 0 119 36" fill="none" xmlns="http://www.w3.org/2000/svg">
<path d="M35.832 31.396C35.4 31.396 35.064 31.324 34.824 31.18C34.608 31.036 34.464 30.844 34.392 30.604C34.32 30.34 34.284 30.04 34.284 29.704V11.632C34.284 10.672 34.392 9.832 34.608 9.112C34.824 8.392 35.184 7.792 35.688 7.312C36.192 6.832 36.828 6.472 37.596 6.232C38.388 5.968 39.36 5.836 40.512 5.836C40.824 5.836 41.1 5.872 41.34 5.944C41.604 5.992 41.796 6.136 41.916 6.376C42.06 6.592 42.132 6.928 42.132 7.384C42.132 7.84 42.06 8.188 41.916 8.428C41.772 8.644 41.58 8.788 41.34 8.86C41.1 8.932 40.812 8.968 40.476 8.968C39.924 8.968 39.444 8.992 39.036 9.04C38.652 9.088 38.352 9.196 38.136 9.364C37.92 9.532 37.752 9.796 37.632 10.156C37.536 10.492 37.488 10.96 37.488 11.56V29.812C37.488 30.124 37.44 30.4 37.344 30.64C37.272 30.88 37.116 31.06 36.876 31.18C36.66 31.324 36.312 31.396 35.832 31.396ZM32.448 14.332L35.904 14.368L40.908 14.296C41.244 14.296 41.532 14.332 41.772 14.404C42.012 14.452 42.192 14.596 42.312 14.836C42.456 15.052 42.528 15.388 42.528 15.844C42.528 16.3 42.468 16.648 42.348 16.888C42.228 17.104 42.048 17.248 41.808 17.32C41.568 17.392 41.28 17.428 40.944 17.428L36.012 17.356L32.376 17.392C31.872 17.392 31.524 17.272 31.332 17.032C31.164 16.792 31.08 16.396 31.08 15.844C31.08 15.316 31.188 14.932 31.404 14.692C31.62 14.452 31.968 14.332 32.448 14.332ZM51.9299 31.54C50.4899 31.54 49.2059 31.3 48.0779 30.82C46.9499 30.34 45.9899 29.692 45.1979 28.876C44.4299 28.036 43.8419 27.076 43.4339 25.996C43.0259 24.916 42.8219 23.752 42.8219 22.504C42.8219 20.848 43.2059 19.372 43.9739 18.076C44.7419 16.78 45.7979 15.76 47.1419 15.016C48.5099 14.248 50.0699 13.864 51.8219 13.864C53.0219 13.864 54.0899 14.056 55.0259 14.44C55.9859 14.8 56.8019 15.292 57.4739 15.916C58.1459 16.54 58.6619 17.236 59.0219 18.004C59.3819 18.772 59.5619 19.54 59.5619 20.308C59.5619 21.532 59.2739 22.396 58.6979 22.9C58.1219 23.38 57.4139 23.62 56.5739 23.62H46.1699C46.1459 24.676 46.4219 25.588 46.9979 26.356C47.5979 27.1 48.3419 27.676 49.2299 28.084C50.1419 28.492 51.0539 28.696 51.9659 28.696C52.6379 28.696 53.2139 28.66 53.6939 28.588C54.1739 28.516 54.5939 28.42 54.9539 28.3C55.3139 28.18 55.6259 28.06 55.8899 27.94C56.1539 27.82 56.3819 27.7 56.5739 27.58C56.7899 27.46 56.9939 27.376 57.1859 27.328C57.4019 27.28 57.6059 27.304 57.7979 27.4C58.0139 27.472 58.1819 27.628 58.3019 27.868C58.4459 28.06 58.5419 28.24 58.5899 28.408C58.6379 28.576 58.6619 28.756 58.6619 28.948C58.6619 29.284 58.3739 29.656 57.7979 30.064C57.2219 30.472 56.4179 30.82 55.3859 31.108C54.3779 31.396 53.2259 31.54 51.9299 31.54ZM46.1699 21.496H55.2059C55.6619 21.496 55.9979 21.436 56.2139 21.316C56.4539 21.196 56.5739 20.872 56.5739 20.344C56.5739 19.672 56.3699 19.072 55.9619 18.544C55.5539 17.992 54.9899 17.548 54.2699 17.212C53.5739 16.876 52.7699 16.708 51.8579 16.708C50.8019 16.708 49.8299 16.924 48.9419 17.356C48.0779 17.764 47.3939 18.328 46.8899 19.048C46.3859 19.768 46.1459 20.584 46.1699 21.496ZM69.2197 31.36C68.0918 31.36 67.1318 31.252 66.3397 31.036C65.5717 30.82 64.9357 30.484 64.4317 30.028C63.9277 29.572 63.5677 28.984 63.3517 28.264C63.1357 27.52 63.0277 26.608 63.0277 25.528V9.616C63.0277 9.28 63.0637 8.992 63.1357 8.752C63.2077 8.512 63.3517 8.332 63.5677 8.212C63.7837 8.068 64.1197 7.996 64.5757 7.996C65.0317 7.996 65.3798 8.068 65.6198 8.212C65.8597 8.332 66.0157 8.512 66.0878 8.752C66.1598 8.968 66.1958 9.244 66.1958 9.58V25.528C66.1958 26.152 66.2438 26.656 66.3397 27.04C66.4597 27.4 66.6277 27.676 66.8437 27.868C67.0838 28.06 67.3958 28.18 67.7798 28.228C68.1638 28.276 68.6318 28.3 69.1838 28.3C69.5678 28.3 69.8798 28.336 70.1198 28.408C70.3597 28.48 70.5398 28.624 70.6598 28.84C70.7798 29.056 70.8398 29.38 70.8398 29.812C70.8398 30.268 70.7678 30.616 70.6238 30.856C70.5038 31.072 70.3118 31.204 70.0477 31.252C69.8078 31.324 69.5318 31.36 69.2197 31.36ZM61.1557 14.332L64.6117 14.368L69.6158 14.296C69.9518 14.296 70.2398 14.332 70.4797 14.404C70.7198 14.452 70.8998 14.596 71.0198 14.836C71.1637 15.052 71.2357 15.388 71.2357 15.844C71.2357 16.3 71.1757 16.648 71.0557 16.888C70.9358 17.104 70.7558 17.248 70.5158 17.32C70.2757 17.392 69.9877 17.428 69.6517 17.428L64.7197 17.356L61.0837 17.392C60.5797 17.392 60.2317 17.272 60.0397 17.032C59.8717 16.792 59.7877 16.396 59.7877 15.844C59.7877 15.316 59.8957 14.932 60.1117 14.692C60.3277 14.452 60.6757 14.332 61.1557 14.332ZM80.2518 31.432C79.0038 31.432 77.8278 31.228 76.7238 30.82C75.6438 30.412 74.6838 29.824 73.8438 29.056C73.0278 28.288 72.3798 27.376 71.8998 26.32C71.4438 25.24 71.2158 24.016 71.2158 22.648C71.2158 21.28 71.4438 20.068 71.8998 19.012C72.3798 17.932 73.0278 17.008 73.8438 16.24C74.6598 15.472 75.6078 14.884 76.6878 14.476C77.7918 14.068 78.9558 13.864 80.1798 13.864C80.9958 13.864 81.7998 13.996 82.5918 14.26C83.3838 14.5 84.0798 14.824 84.6798 15.232C85.3038 15.616 85.7478 16.024 86.0118 16.456C86.2518 16.768 86.4198 17.032 86.5158 17.248C86.6358 17.44 86.6478 17.668 86.5518 17.932C86.4558 18.124 86.3238 18.304 86.1558 18.472C85.9878 18.616 85.8198 18.736 85.6518 18.832C85.2198 19.168 84.7878 19.216 84.3558 18.976C84.0918 18.712 83.7918 18.472 83.4558 18.256C83.1438 18.016 82.8078 17.8 82.4478 17.608C82.0878 17.416 81.7158 17.272 81.3318 17.176C80.9718 17.056 80.5878 16.996 80.1798 16.996C79.0518 16.996 78.0558 17.236 77.1918 17.716C76.3278 18.172 75.6558 18.832 75.1758 19.696C74.7198 20.536 74.4918 21.52 74.4918 22.648C74.4918 23.776 74.7198 24.76 75.1758 25.6C75.6558 26.44 76.3158 27.1 77.1558 27.58C78.0198 28.06 79.0038 28.3 80.1078 28.3C80.6118 28.3 81.0918 28.24 81.5478 28.12C82.0278 27.976 82.4718 27.796 82.8798 27.58C83.2878 27.34 83.6238 27.088 83.8878 26.824C84.1278 26.656 84.3318 26.512 84.4998 26.392C84.6678 26.272 84.8718 26.212 85.1118 26.212C85.3038 26.212 85.5078 26.296 85.7238 26.464C85.9398 26.608 86.1678 26.836 86.4078 27.148C86.5998 27.364 86.7078 27.592 86.7318 27.832C86.7798 28.072 86.7438 28.3 86.6238 28.516C86.5038 28.732 86.3118 28.948 86.0478 29.164C85.6638 29.548 85.1478 29.92 84.4998 30.28C83.8758 30.616 83.1918 30.892 82.4478 31.108C81.7038 31.324 80.9718 31.432 80.2518 31.432ZM89.6461 31.36C89.1901 31.36 88.8421 31.288 88.6021 31.144C88.3621 31.024 88.2061 30.844 88.1341 30.604C88.0861 30.34 88.0621 30.04 88.0621 29.704V7.528C88.0621 7.192 88.0981 6.904 88.1701 6.664C88.2421 6.424 88.3981 6.244 88.6381 6.124C88.8781 5.98 89.2261 5.908 89.6821 5.908C90.1621 5.908 90.5101 5.98 90.7261 6.124C90.9661 6.244 91.1101 6.424 91.1581 6.664C91.2301 6.904 91.2661 7.204 91.2661 7.564V16.456C91.8421 15.784 92.5381 15.184 93.3541 14.656C94.1941 14.128 95.2141 13.864 96.4141 13.864C97.8301 13.864 99.0901 14.2 100.194 14.872C101.322 15.52 102.21 16.444 102.858 17.644C103.53 18.844 103.866 20.272 103.866 21.928V29.74C103.866 30.076 103.83 30.364 103.758 30.604C103.686 30.844 103.542 31.024 103.326 31.144C103.11 31.288 102.762 31.36 102.282 31.36C101.826 31.36 101.478 31.288 101.238 31.144C100.998 31.024 100.842 30.844 100.77 30.604C100.698 30.34 100.662 30.04 100.662 29.704V21.892C100.662 20.884 100.494 20.008 100.158 19.264C99.8221 18.52 99.3181 17.944 98.6461 17.536C97.9981 17.128 97.1701 16.924 96.1621 16.924C94.7941 16.924 93.6661 17.32 92.7781 18.112C91.9141 18.88 91.4101 19.912 91.2661 21.208V29.74C91.2661 30.076 91.2301 30.364 91.1581 30.604C91.0861 30.844 90.9301 31.024 90.6901 31.144C90.4741 31.288 90.1261 31.36 89.6461 31.36ZM107.364 31.36C106.908 31.36 106.56 31.288 106.32 31.144C106.104 31.024 105.96 30.844 105.888 30.604C105.84 30.34 105.816 30.04 105.816 29.704V15.52C105.816 15.16 105.852 14.86 105.924 14.62C105.996 14.38 106.14 14.212 106.356 14.116C106.572 13.996 106.92 13.936 107.4 13.936C107.832 13.936 108.156 13.996 108.372 14.116C108.612 14.212 108.768 14.368 108.84 14.584C108.936 14.776 108.984 15.004 108.984 15.268L108.84 16.348C109.008 16.036 109.2 15.724 109.416 15.412C109.656 15.1 109.944 14.824 110.28 14.584C110.64 14.32 111.06 14.104 111.54 13.936C112.044 13.768 112.656 13.684 113.376 13.684C113.736 13.684 114.072 13.72 114.384 13.792C114.72 13.84 115.032 13.924 115.32 14.044C115.632 14.164 115.896 14.308 116.112 14.476C116.328 14.62 116.496 14.788 116.616 14.98C116.76 15.148 116.832 15.352 116.832 15.592C116.832 16.12 116.664 16.576 116.328 16.96C115.992 17.32 115.644 17.5 115.284 17.5C114.972 17.5 114.744 17.464 114.6 17.392C114.456 17.296 114.312 17.2 114.168 17.104C114.048 17.008 113.868 16.924 113.628 16.852C113.388 16.756 113.004 16.708 112.476 16.708C112.116 16.708 111.732 16.78 111.324 16.924C110.94 17.068 110.568 17.284 110.208 17.572C109.848 17.836 109.548 18.184 109.308 18.616C109.092 19.048 108.984 19.552 108.984 20.128V29.776C108.984 30.112 108.948 30.4 108.876 30.64C108.804 30.88 108.648 31.06 108.408 31.18C108.192 31.3 107.844 31.36 107.364 31.36Z" fill="#157145"/>
<path d="M16.7219 11.2401C19.5444 11.3894 25.1508 10.359 24.9969 5.04305C24.8045 -1.60196 10.9486 3.62445 12.3919 11.2401C13.8352 18.8557 21.0518 35.1323 16.7219 33.9377C12.3919 32.743 9.60148 27.0687 20.5707 17.7358C31.5399 8.40293 9.31282 3.69916 2 15.1226" stroke="#157145" stroke-width="2.5" stroke-linecap="round"/>
</svg>
